<?xml version="1.0" encoding="UTF-8"?>
<svg width="32px" height="32px" viewBox="0 0 32 32" version="1.1" xmlns="http://www.w3.org/2000/svg" xmlns:xlink="http://www.w3.org/1999/xlink">
    <!-- Generator: Sketch 64 (93537) - https://sketch.com -->
    <title>icon</title>
    <desc>Created with Sketch.</desc>
    <defs>
        <linearGradient x1="50%" y1="0%" x2="50%" y2="100%" id="linearGradient-1">
            <stop stop-color="#7AD7FA" offset="0%"></stop>
            <stop stop-color="#47C9FA" offset="100%"></stop>
        </linearGradient>
        <linearGradient x1="50%" y1="0%" x2="50%" y2="100%" id="linearGradient-2">
            <stop stop-color="#69B6D6" offset="0%"></stop>
            <stop stop-color="#2A9BCE" offset="100%"></stop>
        </linearGradient>
    </defs>
    <g id="icon" stroke="none" stroke-width="1" fill="none" fill-rule="evenodd">
        <g id="logo-large">
            <g id="background" transform="translate(0.810127, 0.810127)">
                <rect id="Rectangle" stroke="url(#linearGradient-2)" stroke-width="0.810126582" fill="url(#linearGradient-1)" x="-0.405063291" y="-0.405063291" width="31.1898734" height="31.1898734" rx="4.65822785"></rect>
                <text id="F" opacity="0.7" font-family="Avenir-Black, Avenir" font-size="12.1518987" font-weight="700" fill="#2C2C2C">
                    <tspan x="19.0805063" y="12.1012658">F</tspan>
                </text>
                <text id="B" opacity="0.7" font-family="Avenir-Black, Avenir" font-size="12.1518987" font-weight="700" fill="#2C2C2C">
                    <tspan x="18.9488608" y="25.9746835">B</tspan>
                </text>
                <path d="M4.4556962,1.62025316 L13.5696203,1.62025316 L13.5696203,1.62025316 L13.5696203,8.81012658 L1.72151899,8.81012658 L1.72151899,4.35443038 C1.72151899,2.844386 2.94565182,1.62025316 4.4556962,1.62025316 Z" id="Rectangle" stroke="#FFFFFF" stroke-width="1.41772152" fill-opacity="0" fill="#D8D8D8"></path>
                <path d="M16.9113924,1.62025316 L25.9240506,1.62025316 C27.434095,1.62025316 28.6582278,2.844386 28.6582278,4.35443038 L28.6582278,12.4556962 C28.6582278,13.9657406 27.434095,15.1898734 25.9240506,15.1898734 L16.9113924,15.1898734 L16.9113924,15.1898734 L16.9113924,1.62025316 Z" id="Rectangle" stroke="#FFFFFF" stroke-width="1.41772152" fill-opacity="0" fill="#D8D8D8"></path>
                <path d="M16.9113924,15.1898734 L25.9240506,15.1898734 C27.434095,15.1898734 28.6582278,16.4140063 28.6582278,17.9240506 L28.6582278,26.0253165 C28.6582278,27.5353608 27.434095,28.7594937 25.9240506,28.7594937 L16.9113924,28.7594937 L16.9113924,28.7594937 L16.9113924,15.1898734 Z" id="Rectangle" stroke="#FFFFFF" stroke-width="1.41772152" fill-opacity="0" fill="#D8D8D8"></path>
                <path d="M1.72151899,12.1518987 L13.5696203,12.1518987 L13.5696203,28.6582278 L4.4556962,28.6582278 C2.94565182,28.6582278 1.72151899,27.434095 1.72151899,25.9240506 L1.72151899,12.1518987 L1.72151899,12.1518987 Z" id="Rectangle" stroke="#FFFFFF" stroke-width="1.41772152" fill-opacity="0" fill="#D8D8D8"></path>
                <rect id="Rectangle" fill="#2C2C2C" opacity="0.7" x="4.25316456" y="15.5949367" width="6.6835443" height="2.02531646"></rect>
                <rect id="Rectangle" fill="#2C2C2C" opacity="0.7" x="4.25316456" y="4.25316456" width="6.6835443" height="2.02531646"></rect>
                <rect id="Rectangle" fill="#2C2C2C" opacity="0.7" x="4.25316456" y="19.443038" width="6.6835443" height="2.02531646"></rect>
                <rect id="Rectangle" fill="#2C2C2C" opacity="0.7" x="4.25316456" y="23.1898734" width="6.6835443" height="2.02531646"></rect>
            </g>
        </g>
    </g>
</svg>